<!-- Exported by Character Map UWP -->
<svg height="100%" viewBox="128 320 768 416" width="100%" xmlns="http://www.w3.org/2000/svg" xmlns:xlink="http://www.w3.org/1999/xlink">
  <path d="M128,352C128,343.333 131.167,335.833 137.5,329.5C143.833,323.167 151.333,320 160,320C168.667,320 176.167,323.167 182.5,329.5L512,658.5L841.5,329.5C847.833,323.167 855.333,320 864,320C872.667,320 880.167,323.167 886.5,329.5C892.833,335.833 896,343.333 896,352C896,360.667 892.833,368.167 886.5,374.5L534.5,726.5C528.167,732.833 520.667,736 512,736C503.333,736 495.833,732.833 489.5,726.5L137.5,374.5C131.167,368.167 128,360.667 128,352Z" fill="#FFFFFF" fill-opacity="1">
  </path>
</svg>